# AST/ASF file generated using VICON BodyLanguage
# -----------------------------------------------
:version 1.10
:name VICON
:units
  mass 1.0
  length 0.45
  angle deg
:documentation
   .ast/.asf automatically generated from VICON data using
   VICON BodyBuilder and BodyLanguage model FoxedUp or BRILLIANT.MOD
:root
   order TX TY TZ RX RY RZ
   axis XYZ
   position 0 0 0  
   orientation 0 0 0 
:bonedata
  begin
     id 1 
     name lhipjoint
     direction 0.677091 -0.635792 0.370561 
     length 2.74323 
     axis 0 0 0  XYZ
  end
  begin
     id 2 
     name lfemur
     direction 0.34202 -0.939693 0  
     length 7.44995  
     axis 0 0 20  XYZ
    dof rx ry rz
    limits (-160.0 20.0)
           (-70.0 70.0)
           (-60.0 70.0)
  end
  begin
     id 3 
     name ltibia
     direction 0.34202 -0.939693 0   
     length 7.34467   
     axis 0 0 20   XYZ
    dof rx
    limits (-10.0 170.0)
  end
  begin
     id 4 
     name lfoot
     direction 0.101953 -0.280114 0.954537   
     length 1.72105   
     axis -90 7.62852e-016 20   XYZ
    dof rx rz
    limits (-45.0 90.0)
           (-70.0 20.0)
  end
  begin
     id 5 
     name ltoes
     direction 1.53537e-011 -4.21915e-011 1   
     length 0.865872   
     axis -90 7.62852e-016 20   XYZ
    dof rx
    limits (-90.0 20.0)
  end
  begin
     id 6 
     name rhipjoint
     direction -0.695735 -0.620586 0.361699   
     length 2.81045  
     axis 0 0 0  XYZ 
  end
  begin
     id 7 
     name rfemur
     direction -0.34202 -0.939693 0   
     length 7.29387   
     axis 0 0 -20   XYZ
    dof rx ry rz
    limits (-160.0 20.0)
           (-70.0 70.0)
           (-70.0 60.0)
  end
  begin
     id 8 
     name rtibia
     direction -0.34202 -0.939693 0   
     length 7.44935   
     axis 0 0 -20   XYZ
    dof rx
    limits (-10.0 170.0)
 end
 begin
     id 9 
     name rfoot
     direction -0.104163 -0.286184 0.952496   
     length 1.77731  
     axis -90 -7.62852e-016 -20   XYZ
    dof rx rz
    limits (-45.0 90.0)
           (-20.0 70.0)
  end
  begin
     id 10 
     name rtoes
     direction -1.5355e-011 -4.21888e-011 1   
     length 0.892424   
     axis -90 -7.62852e-016 -20   XYZ
    dof rx
    limits (-90.0 20.0)
  end
  begin
     id 11 
     name lowerback
     direction 0.0100202 0.997226 -0.0737589   
     length 2.16892   
     axis 0 0 0   XYZ
    dof rx ry rz
    limits (-20.0 45.0)
           (-30.0 30.0)
           (-30.0 30.0)
  end
  begin
     id 12 
     name upperback
     direction 0.00432398 0.999988 -0.00215019   
     length 2.17326   
     axis 0 0 0   XYZ
    dof rx ry rz
    limits (-20.0 45.0)
           (-30.0 30.0)
           (-30.0 30.0)
  end
  begin
     id 13 
     name thorax
     direction -0.00195047 0.999485 0.0320434   
     length 2.18139   
     axis 0 0 0   XYZ
    dof rx ry rz
    limits (-20.0 45.0)
           (-30.0 30.0)
           (-30.0 30.0)
  end
  begin
     id 14 
     name lowerneck
     direction 0.00782762 0.986241 0.165128   
     length 1.88415   
     axis 0 0 0   XYZ
    dof rx ry rz
    limits (-20.0 45.0)
           (-30.0 30.0)
           (-30.0 30.0)
  end
  begin
     id 15 
     name upperneck
     direction 0.00988667 0.981098 -0.193258   
     length 1.9242   
     axis 0 0 0   XYZ
    dof rx ry rz
    limits (-20.0 45.0)
           (-30.0 30.0)
           (-30.0 30.0)
  end
  begin
     id 16
     name head
     direction 0.00252199 0.996513 -0.0833958  
     length 1.93887  
     axis 0 0 0   XYZ
    dof rx ry rz
    limits (-20.0 45.0)
           (-30.0 30.0)
           (-30.0 30.0)
  end
  begin
     id 17 
     name lclavicle
     direction 0.929492 0.368193 -0.0218667  
     length 3.5955  
     axis 0 0 0   XYZ
    dof ry rz
    limits (-20.0 10.0)
           (0.0 20.0)
  end
  begin
     id 18 
     name lhumerus
     direction 1 -4.48972e-011 1.41911e-027   
     length 5.2795   
     axis 180 -30 -90   XYZ
    dof rx ry rz
    limits (-60.0 90.0)
           (-90.0 90.0)
           (-90.0 90.0)
  end
  begin
     id 19
     name lradius
     direction 1 -4.48963e-011 7.05772e-027   
     length 3.53504   
     axis 180 -30 -90   XYZ
    dof rx
    limits (-10.0 170.0)
  end
  begin
     id 20
     name lwrist
     direction 1 -4.48957e-011 9.54866e-027   
     length 1.76752   
     axis -7.69462e-015 90 90   XYZ
    dof ry
    limits (-180.0 0.0)
 end
  begin
     id 21 
     name lhand
     direction 1 -4.48979e-011 1.90973e-026   
     length 0.667948   
     axis -1.21857e-014 90 90   XYZ
    dof rx rz
    limits (-90.0 90.0)
           (-45.0 45.0)
  end
  begin
     id 22 
     name lfingers
     direction 1 -4.48987e-011 3.81946e-026   
     length 0.538517   
     axis -2.43714e-014 90 90   XYZ
    dof rx
    limits (0.0 90.0)
  end
  begin
     id 23
     name lthumb
     direction 0.707107 -6.34962e-011 0.707107   
     length 0.773206   
     axis -90 45 2.85299e-015   XYZ
    dof rx rz
    limits (-45.0 45.0)
           (-45.0 45.0)
  end
  begin
     id 24 
     name rclavicle
     direction -0.898763 0.414256 -0.143584   
     length 3.5176  
     axis 0 0 0   XYZ 
    dof ry rz
    limits (-10.0 20.0)
           (-20.0 0.0)
  end
  begin
     id 25 
     name rhumerus
     direction -1 -4.48971e-011 1.129e-027  
     length 5.25035   
     axis 180 30 90   XYZ
    dof rx ry rz
    limits (-90.0 60.0)
           (-90.0 90.0)
           (-90.0 90.0)
  end
  begin
     id 26 
     name rradius
     direction -1 -4.48955e-011 6.34664e-027   
     length 3.58884   
     axis 180 30 90   XYZ
    dof rx
    limits (-10.0 170.0)
  end
  begin
     id 27 
     name rwrist
     direction -1 -4.48966e-011 9.54866e-027   
     length 1.79442   
     axis -7.69462e-015 -90 -90   XYZ
    dof ry
    limits (-180.0 0.0)
  end
  begin
     id 28
     name rhand
     direction -1 -4.48973e-011 1.90973e-026   
     length 0.779235   
     axis -1.21857e-014 -90 -90   XYZ
    dof rx rz
    limits (-90.0 90.0)
           (-45.0 45.0)
  end
  begin
     id 29
     name rfingers
     direction -1 -4.48984e-011 3.81946e-026   
     length 0.62824   
     axis -2.43714e-014 -90 -90   XYZ
    dof rx
    limits (0.0 90.0)
  end
  begin
     id 30
     name rthumb
     direction -0.707107 -6.34968e-011 0.707107   
     length 0.90203   
     axis -90 -45 -2.85299e-015   XYZ
    dof rx rz
    limits (-45.0 45.0)
           (-45.0 45.0)
  end
:hierarchy
  begin
    root lhipjoint rhipjoint lowerback
    lhipjoint lfemur
    lfemur ltibia
    ltibia lfoot
    lfoot ltoes
    rhipjoint rfemur
    rfemur rtibia
    rtibia rfoot
    rfoot rtoes
    lowerback upperback
    upperback thorax
    thorax lowerneck lclavicle rclavicle
    lowerneck upperneck
    upperneck head
    lclavicle lhumerus
    lhumerus lradius
    lradius lwrist
    lwrist lhand lthumb
    lhand lfingers
    rclavicle rhumerus
    rhumerus rradius
    rradius rwrist
    rwrist rhand rthumb
    rhand rfingers
  end

#!OML:ASF I:\Random Stuff\random\construction\7_22_03\Session 2\subj1.ASF
:FULLY-SPECIFIED
:DEGREES
345
root -9.82518 17.7949 -3.8218 -356.6 79.7484 -375.312
lowerback 12.4603 -0.970312 0.720947
upperback 4.7128 -0.981584 1.30091
thorax -2.03906 -0.418725 1.07964
lowerneck -22.6877 3.47085 3.19572
upperneck 35.3861 4.99968 -0.874272
head 16.7202 2.54943 0.15067
rclavicle -3.6477e-014 -7.55382e-015
rhumerus -0.33769 15.5354 -75.3566
rradius 37.6932
rwrist 32.2246
rhand -33.6563 40.7993
rfingers 7.12502
rthumb -6.84784 10.93
lclavicle -3.6477e-014 -7.55382e-015
lhumerus 10.4506 -15.3996 78.4052
lradius 31.2972
lwrist -6.13086
lhand -34.385 59.8368
lfingers 7.12502
lthumb -7.55121 -630.318
rfemur -29.3348 4.45186 18.754
rtibia 17.8492
rfoot -4.91642 -6.27934
rtoes -23.1327
lfemur -26.0218 -15.6314 -5.13872
ltibia 20.8275
lfoot -15.8132 26.7869
ltoes -30.3026
346
root -9.81447 17.7925 -3.8216 -355.961 79.3916 -374.794
lowerback 12.6002 -0.862008 0.745102
upperback 4.72045 -0.833488 1.29167
thorax -2.10927 -0.344675 1.03781
lowerneck -22.7864 3.50716 3.2415
upperneck 35.4777 5.08334 -0.987268
head 16.8 2.57124 0.113946
rclavicle -9.93923e-015 5.66536e-015
rhumerus -0.0129556 15.9501 -75.0682
rradius 37.6957
rwrist 32.0637
rhand -33.8845 41.3397
rfingers 7.12502
rthumb -7.06812 11.4777
lclavicle -9.93923e-015 5.66536e-015
lhumerus 10.3204 -15.6927 78.2838
lradius 31.3212
lwrist -6.22137
lhand -35.2969 60.1446
lfingers 7.12502
lthumb -8.43129 -630.044
rfemur -29.5929 4.65078 18.6904
rtibia 18.0282
rfoot -4.93503 -6.15864
rtoes -23.5019
lfemur -25.9897 -15.5587 -5.17871
ltibia 20.814
lfoot -15.9804 27.0354
ltoes -30.0388
347
root -9.79711 17.7937 -3.82109 -355.06 79.201 -373.991
lowerback 12.6537 -0.802491 0.763277
upperback 4.73418 -0.752687 1.26495
thorax -2.12552 -0.304097 0.988982
lowerneck -22.7967 3.54515 3.2529
upperneck 35.5364 5.16787 -1.05159
head 16.8384 2.59753 0.102474
rclavicle -2.39536e-014 1.82882e-014
rhumerus 0.252913 16.6114 -74.7099
rradius 37.676
rwrist 31.4884
rhand -34.1238 42.1075
rfingers 7.12502
rthumb -7.29903 12.2533
lclavicle -2.39536e-014 1.82882e-014
lhumerus 10.2182 -16.2932 78.09
lradius 31.3043
lwrist -5.5757
lhand -36.15 60.041
lfingers 7.12502
lthumb -9.25449 -630.182
rfemur -29.7673 4.63277 18.5806
rtibia 18.1856
rfoot -5.0009 -6.01301
rtoes -23.8439
lfemur -25.9571 -15.4057 -5.36076
ltibia 20.7865
lfoot -16.0558 27.0714
ltoes -29.9189
348
root -9.78073 17.7944 -3.82098 -354.109 79.0448 -373.116
lowerback 12.7853 -0.739322 0.79517
upperback 4.70396 -0.665956 1.20362
thorax -2.23042 -0.260789 0.896714
lowerneck -22.7638 3.57903 3.3077
upperneck 35.5956 5.22901 -1.10935
head 16.8676 2.62257 0.0807639
rclavicle 1.35671e-014 -1.25234e-014
rhumerus 0.355317 17.3523 -74.3395
rradius 37.8086
rwrist 30.7583
rhand -33.9355 42.9297
rfingers 7.12502
rthumb -7.11733 13.0694
lclavicle 1.35671e-014 -1.25234e-014
lhumerus 10.0433 -16.85 77.8951
lradius 31.0911
lwrist -5.94713
lhand -36.4932 60.0878
lfingers 7.12502
lthumb -9.58571 -630.15
rfemur -29.9233 4.65794 18.4176
rtibia 18.3387
rfoot -5.09087 -5.95237
rtoes -23.9814
lfemur -25.8977 -15.1063 -5.61703
ltibia 20.7239
lfoot -16.0781 26.9223
ltoes -29.6613
349
root -9.76409 17.7966 -3.81946 -353.316 78.8901 -372.404
lowerback 12.8886 -0.723595 0.725635
upperback 4.67309 -0.654149 1.16075
thorax -2.31831 -0.255561 0.891051
lowerneck -22.707 3.66007 3.48693
upperneck 35.6301 5.35022 -1.27775
head 16.89 2.67203 0.000171696
rclavicle -9.49197e-015 -7.25564e-015
rhumerus 0.394625 18.3692 -73.8941
rradius 38.1959
rwrist 30.2967
rhand -33.7131 43.6062
rfingers 7.12502
rthumb -6.90265 13.7387
lclavicle -9.49197e-015 -7.25564e-015
lhumerus 9.84113 -16.9767 77.6914
lradius 30.826
lwrist -6.88222
lhand -36.5427 59.8822
lfingers 7.12502
lthumb -9.63344 -630.358
rfemur -30.0449 4.70656 18.2849
rtibia 18.4347
rfoot -5.1701 -5.87543
rtoes -24.0713
lfemur -25.8401 -14.8282 -5.82764
ltibia 20.6437
lfoot -16.1473 26.7721
ltoes -29.106
350
root -9.74741 17.8006 -3.81735 -352.72 78.7675 -371.889
lowerback 12.9453 -0.770556 0.573428
upperback 4.64529 -0.734964 1.14818
thorax -2.3753 -0.296879 0.976544
lowerneck -22.6003 3.80501 3.77937
upperneck 35.6611 5.54563 -1.50562
head 16.9092 2.75838 -0.111932
rclavicle 2.54444e-014 -3.07122e-014
rhumerus 0.362397 19.8246 -73.311
rradius 38.8693
rwrist 29.8494
rhand -33.7709 44.2868
rfingers 7.12502
rthumb -6.9584 14.4211
lclavicle 2.54444e-014 -3.07122e-014
lhumerus 9.67108 -16.9847 77.4409
lradius 30.6261
lwrist -7.12662
lhand -36.8486 59.4229
lfingers 7.12502
lthumb -9.92855 -630.831
rfemur -30.131 4.77798 18.1796
rtibia 18.4771
rfoot -5.17666 -5.84275
rtoes -23.9747
lfemur -25.8273 -14.7845 -5.93094
ltibia 20.6057
lfoot -16.2988 26.827
ltoes -28.522
351
root -9.73082 17.8041 -3.8151 -352.329 78.6945 -371.547
lowerback 13.033 -0.794972 0.483963
upperback 4.63597 -0.776403 1.15299
thorax -2.43057 -0.31776 1.03938
lowerneck -22.591 3.91157 3.98472
upperneck 35.783 5.69477 -1.65682
head 16.9921 2.82489 -0.181464
rclavicle -3.97569e-015 -8.94531e-016
rhumerus 0.199679 21.3253 -72.5468
rradius 39.854
rwrist 29.3062
rhand -33.9671 45.278
rfingers 7.12502
rthumb -7.14776 15.4187
lclavicle -3.97569e-015 -8.94531e-016
lhumerus 9.56867 -17.1787 77.2476
lradius 30.5887
lwrist -7.18427
lhand -37.2979 59.8192
lfingers 7.12502
lthumb -10.362 -630.456
rfemur -30.1524 4.93131 18.0711
rtibia 18.4806
rfoot -5.13107 -5.96884
rtoes -23.8537
lfemur -25.8049 -14.7739 -6.01229
ltibia 20.6041
lfoot -16.3745 26.9155
ltoes -28.4269
352
root -9.71205 17.8068 -3.8135 -352.219 78.6378 -371.471
lowerback 13.1295 -0.78332 0.502088
upperback 4.63133 -0.756394 1.1645
thorax -2.48795 -0.307439 1.03954
lowerneck -22.6651 3.94507 4.0053
upperneck 35.9893 5.75269 -1.64694
head 17.1217 2.85281 -0.163855
rclavicle 6.31141e-015 -2.61402e-014
rhumerus -0.149992 22.8073 -71.6483
rradius 41.2323
rwrist 28.6693
rhand -34.1402 46.2363
rfingers 7.12502
rthumb -7.31493 16.3827
lclavicle 6.31141e-015 -2.61402e-014
lhumerus 9.4871 -17.4977 77.1147
lradius 30.6718
lwrist -7.32979
lhand -37.7281 61.0806
lfingers 7.12502
lthumb -10.777 -450.784
rfemur -30.1211 5.08639 18.0148
rtibia 18.4546
rfoot -5.088 -6.12194
rtoes -23.8639
lfemur -25.7638 -14.848 -6.0293
ltibia 20.6161
lfoot -16.4741 27.0636
ltoes -28.4049
353
root -9.69228 17.8093 -3.81296 -352.272 78.6239 -371.604
lowerback 13.201 -0.780996 0.608677
upperback 4.57893 -0.740087 1.15936
thorax -2.5831 -0.299303 0.973021
lowerneck -22.6479 3.98704 4.0828
upperneck 36.1118 5.81138 -1.6733
head 17.1896 2.88498 -0.174984
rclavicle 1.15295e-014 -1.49089e-015
rhumerus -0.716791 24.5023 -70.6896
rradius 43.0565
rwrist 27.9516
rhand -34.0412 46.3993
rfingers 7.12502
rthumb -7.21931 16.5425
lclavicle 1.15295e-014 -1.49089e-015
lhumerus 9.31311 -17.8937 76.9952
lradius 30.794
lwrist -7.30799
lhand -37.909 62.0744
lfingers 7.12502
lthumb -10.9515 -451.769
rfemur -30.1243 5.15188 18.0137
rtibia 18.432
rfoot -5.01054 -6.20924
rtoes -23.875
lfemur -25.7816 -15.0904 -5.94194
ltibia 20.6216
lfoot -16.7151 27.3084
ltoes -27.9967
354
root -9.67151 17.8121 -3.81314 -352.296 78.6803 -371.762
lowerback 13.1474 -0.818262 0.697537
upperback 4.52784 -0.779925 1.17452
thorax -2.60808 -0.319674 0.94443
lowerneck -22.5861 4.06249 4.23273
upperneck 36.1514 5.93881 -1.83587
head 17.2154 2.93456 -0.247064
rclavicle 2.4699e-014 3.97569e-016
rhumerus -1.34254 26.3196 -69.6614
rradius 45.2497
rwrist 27.266
rhand -33.7282 46.1122
rfingers 7.12502
rthumb -6.91719 16.2452
lclavicle 2.4699e-014 3.97569e-016
lhumerus 9.05266 -18.1268 76.9629
lradius 31.0415
lwrist -7.15346
lhand -37.7014 62.3756
lfingers 7.12502
lthumb -10.7513 -452.081
rfemur -30.1965 5.12623 18.0168
rtibia 18.4455
rfoot -4.9704 -6.22594
rtoes -23.9634
lfemur -25.8722 -15.347 -5.83315
ltibia 20.6057
lfoot -16.8969 27.5493
ltoes -27.6329
355
root -9.64901 17.8154 -3.81397 -352.214 78.777 -371.8
lowerback 12.9973 -0.902723 0.687189
upperback 4.52168 -0.894118 1.21933
thorax -2.53113 -0.37704 1.01189
lowerneck -22.5532 4.15501 4.31842
upperneck 36.2344 6.12157 -1.99571
head 17.2716 2.99699 -0.294063
rclavicle 4.20927e-014 4.07509e-015
rhumerus -1.92737 28.0774 -68.6194
rradius 47.6082
rwrist 26.5367
rhand -33.4019 45.7461
rfingers 7.12502
rthumb -6.60218 15.869
lclavicle 4.20927e-014 4.07509e-015
lhumerus 8.73291 -18.3346 76.9147
lradius 31.4922
lwrist -6.50093
lhand -37.3901 62.3324
lfingers 7.12502
lthumb -10.4509 -452.053
rfemur -30.2531 5.07864 17.9856
rtibia 18.4829
rfoot -5.02815 -6.27823
rtoes -23.859
lfemur -25.9567 -15.551 -5.77941
ltibia 20.5779
lfoot -16.9122 27.7295
ltoes -27.7418
356
root -9.62733 17.8177 -3.81484 -351.991 78.8531 -371.643
lowerback 12.928 -1.00941 0.587243
upperback 4.507 -1.04756 1.25017
thorax -2.50454 -0.454083 1.12208
lowerneck -22.5099 4.2899 4.39171
upperneck 36.3902 6.34415 -2.05818
head 17.3614 3.08823 -0.286062
rclavicle 1.10325e-014 -2.21645e-014
rhumerus -2.50139 29.7991 -67.6338
rradius 49.9978
rwrist 25.6187
rhand -33.7454 46.9577
rfingers 7.12502
rthumb -6.93385 17.0913
lclavicle 1.10325e-014 -2.21645e-014
lhumerus 8.35662 -18.5632 76.8243
lradius 31.9714
lwrist -5.54974
lhand -37.2826 62.2443
lfingers 7.12502
lthumb -10.3473 -451.97
rfemur -30.2564 5.04695 17.9213
rtibia 18.5113
rfoot -5.05064 -6.38496
rtoes -23.7075
lfemur -25.9777 -15.6383 -5.82556
ltibia 20.5667
lfoot -16.8561 27.7839
ltoes -28.2122
357
root -9.60624 17.8177 -3.8156 -352.035 78.852 -371.697
lowerback 12.9713 -1.08573 0.512846
upperback 4.47145 -1.15661 1.26532
thorax -2.56157 -0.508774 1.1972
lowerneck -22.44 4.41091 4.47638
upperneck 36.5278 6.52204 -2.07476
head 17.4318 3.17043 -0.269661
rclavicle 1.02374e-014 -2.18663e-015
rhumerus -3.15475 31.2658 -66.7606
rradius 52.5282
rwrist 24.6475
rhand -33.7436 47.751
rfingers 7.12502
rthumb -6.93204 17.8845
lclavicle 1.02374e-014 -2.18663e-015
lhumerus 7.96835 -18.562 76.8014
lradius 32.3579
lwrist -5.32026
lhand -37.2703 62.2922
lfingers 7.12502
lthumb -10.3354 -452.018
rfemur -30.2083 5.0984 17.9036
rtibia 18.522
rfoot -5.00726 -6.47954
rtoes -23.9736
lfemur -25.9187 -15.7008 -5.84912
ltibia 20.5821
lfoot -16.8931 27.8643
ltoes -28.5663
358
root -9.58283 17.8165 -3.81804 -352.372 78.7943 -371.989
lowerback 13.056 -1.11604 0.536827
upperback 4.4548 -1.19301 1.24305
thorax -2.62521 -0.526473 1.16782
lowerneck -22.3901 4.4639 4.60212
upperneck 36.6032 6.59859 -2.1602
head 17.475 3.20754 -0.313484
rclavicle -1.31198e-014 -1.74931e-014
rhumerus -4.0703 32.1341 -66.1194
rradius 55.3364
rwrist 24.1253
rhand -33.4475 47.9762
rfingers 7.12502
rthumb -6.64626 18.1005
lclavicle -1.31198e-014 -1.74931e-014
lhumerus 7.65664 -18.5369 76.7698
lradius 32.7225
lwrist -5.61653
lhand -37.1576 62.4949
lfingers 7.12502
lthumb -10.2267 -452.226
rfemur -30.0881 5.18672 17.9371
rtibia 18.5252
rfoot -5.01711 -6.51101
rtoes -24.3938
lfemur -25.7843 -15.9028 -5.80865
ltibia 20.6136
lfoot -17.0169 28.1285
ltoes -28.7279
